# xmcd
#
# Track frame offsets: 
#        150
#        18917
#        42512
#        60755
#        79620
#
# Disc length: 1348 seconds
#
# Revision: 0
# Processed by: cddbd v1.5.2PL0 Copyright (c) Steve Scherf et al.
# Submitted via: ExactAudioCopy v1.0b3
#
DISCID=2d054205
DTITLE=John Mcnair, Keith Anthonisz, Warren Hillman, Dean Barradell, N
DTITLE=arelle Cutter - Doom Ensemble Northbridge - The Tunnel
DYEAR=1996
DGENRE=Blues
TTITLE0=Northbridge - The Tunnel
TTITLE1=Shamans On The Rise
TTITLE2=Winter
TTITLE3=Dark Lady
TTITLE4=Kiss Of The Viper
EXTD=
EXTT0=
EXTT1=
EXTT2=
EXTT3=
EXTT4=
PLAYORDER=
